HIERARCHY
ROOT root
{
	OFFSET 0.000000 0.000000 0.000000
	CHANNELS 6 Xposition Yposition Zposition Zrotation Yrotation Xrotation
	JOINT lhip
	{
		OFFSET 0.058581 -0.082280 -0.017664
		CHANNELS 3 Zrotation Yrotation Xrotation
		JOINT lknee
		{
			OFFSET 0.043451 -0.386469 0.008037
			CHANNELS 3 Zrotation Yrotation Xrotation
			JOINT lankle
			{
				OFFSET -0.014790 -0.426874 -0.037428
				CHANNELS 3 Zrotation Yrotation Xrotation
				JOINT ltoe
				{
					OFFSET 0.041054 -0.060286 0.122042
					CHANNELS 3 Zrotation Yrotation Xrotation
					End Site
					{
						OFFSET 0.000000 0.000000 0.000000
					}
				}
			}
		}
	}
	JOINT rhip
	{
		OFFSET -0.060310 -0.090513 -0.013543
		CHANNELS 3 Zrotation Yrotation Xrotation
		JOINT rknee
		{
			OFFSET -0.043257 -0.383688 -0.004843
			CHANNELS 3 Zrotation Yrotation Xrotation
			JOINT rankle
			{
				OFFSET 0.019056 -0.420046 -0.034562
				CHANNELS 3 Zrotation Yrotation Xrotation
				JOINT rtoe
				{
					OFFSET -0.034840 -0.062106 0.130323
					CHANNELS 3 Zrotation Yrotation Xrotation
					End Site
					{
						OFFSET 0.000000 0.000000 0.000000
					}
				}
			}
		}
	}
	JOINT lowerback
	{
		OFFSET 0.004439 0.124404 -0.038385
		CHANNELS 3 Zrotation Yrotation Xrotation
		JOINT upperback
		{
			OFFSET 0.004488 0.137956 0.026820
			CHANNELS 3 Zrotation Yrotation Xrotation
			JOINT chest
			{
				OFFSET -0.002265 0.056032 0.002855
				CHANNELS 3 Zrotation Yrotation Xrotation
				JOINT lowerneck
				{
					OFFSET -0.013390 0.211636 -0.033468
					CHANNELS 3 Zrotation Yrotation Xrotation
					JOINT upperneck
					{
						OFFSET 0.010113 0.088937 0.050410
						CHANNELS 3 Zrotation Yrotation Xrotation
						End Site
						{
							OFFSET 0.000000 0.000000 0.000000
						}
					}
				}
				JOINT lclavicle
				{
					OFFSET 0.071702 0.114000 -0.018898
					CHANNELS 3 Zrotation Yrotation Xrotation
					JOINT lshoulder
					{
						OFFSET 0.122921 0.045205 -0.019046
						CHANNELS 3 Zrotation Yrotation Xrotation
						JOINT lelbow
						{
							OFFSET 0.255332 -0.015649 -0.022946
							CHANNELS 3 Zrotation Yrotation Xrotation
							JOINT lwrist
							{
								OFFSET 0.265709 0.012698 -0.007375
								CHANNELS 3 Zrotation Yrotation Xrotation
								End Site
								{
									OFFSET 0.000000 0.000000 0.000000
								}
							}
						}
					}
				}
				JOINT rclavicle
				{
					OFFSET -0.082954 0.112472 -0.023707
					CHANNELS 3 Zrotation Yrotation Xrotation
					JOINT rshoulder
					{
						OFFSET -0.113228 0.046853 -0.008472
						CHANNELS 3 Zrotation Yrotation Xrotation
						JOINT relbow
						{
							OFFSET -0.260127 -0.014369 -0.031269
							CHANNELS 3 Zrotation Yrotation Xrotation
							JOINT rwrist
							{
								OFFSET -0.269108 0.006794 -0.006027
								CHANNELS 3 Zrotation Yrotation Xrotation
								End Site
								{
									OFFSET 0.000000 0.000000 0.000000
								}
							}
						}
					}
				}
			}
		}
	}
}
MOTION
Frames: 11
Frame Time: 0.033333
-0.525689 0.761737 1.007674 -89.612236 0.012263 85.003420 -3.142520 -1.742261 -1.165194 -1.730781 -7.138863 7.849896 1.628297 6.930959 -6.177259 0.000000 -0.000000 0.000000 2.067148 -1.250584 2.436183 1.763320 0.045887 12.532567 1.852112 -4.561357 -11.337152 0.000000 -0.000000 0.000000 2.414696 1.462781 13.650595 0.720884 -0.321778 -0.350056 -0.058771 0.554106 1.035780 -0.544174 3.497275 -7.539746 -4.225037 -2.216271 10.000326 -29.133025 0.036604 1.141497 -56.897845 -5.533456 11.495631 7.673913 -26.880161 5.972822 -4.385539 -4.810415 -4.018213 28.567266 7.160116 2.278534 50.910037 11.097601 12.353822 -16.455701 23.577709 -13.456144 3.107598 4.507966 -7.787559 
-0.537380 0.759021 1.007698 -89.611819 -0.007174 85.025070 -3.205921 -1.374982 -0.062166 -1.824757 -7.556365 7.004143 1.618908 6.897232 -6.421287 0.000000 -0.000000 0.000000 2.127507 -1.192779 2.831536 1.391494 0.283120 13.083043 2.188430 -4.796901 -11.803405 0.000000 -0.000000 0.000000 1.815200 1.365454 13.098945 0.968750 -0.643894 -0.233544 0.243666 0.305796 1.103003 -0.282309 3.709707 -7.480595 -4.111397 -2.035791 9.831717 -28.775269 0.172931 1.147425 -57.381903 -5.176877 11.471526 7.609750 -25.417069 6.012706 -3.625870 -4.458082 -4.575075 29.174554 6.788551 2.493079 51.238308 10.905129 12.334581 -16.304390 22.993173 -13.406022 2.756705 4.169615 -8.085950 
-0.547746 0.755620 1.006916 -89.847969 -0.019887 85.364192 -3.257080 -0.875548 0.625425 -2.032611 -7.255338 6.205009 1.677566 6.710897 -6.605189 0.000000 -0.000000 0.000000 1.942853 -1.673129 2.429678 1.223872 0.631336 14.252871 2.308746 -4.452105 -12.707065 0.000000 -0.000000 0.000000 1.593938 1.426307 12.460197 1.085273 -0.778081 -0.142489 0.178938 0.262554 1.039319 0.026780 3.827599 -7.282003 -3.954533 -2.331898 9.542999 -28.513744 0.417666 1.286278 -57.178813 -5.011619 11.276853 7.781117 -25.117621 6.986923 -4.785168 -4.119787 -3.427839 29.117023 6.289803 2.581339 52.579966 10.151023 12.219898 -16.381378 22.419215 -13.210838 3.251582 3.693241 -8.401650 
-0.558651 0.751337 1.005585 -89.604520 -0.157884 85.343372 -3.618002 -0.827707 1.658055 -2.084387 -7.849607 5.607543 1.779939 6.796558 -7.187949 0.000000 -0.000000 0.000000 1.869506 -0.947462 2.314329 0.881326 0.259511 15.844802 2.230866 -5.105804 -13.820768 0.000000 -0.000000 0.000000 1.353569 1.106020 12.073379 1.114959 -0.803475 -0.100257 0.139393 0.171162 1.199618 0.128880 4.054880 -7.463054 -4.002980 -2.263650 9.431994 -28.366491 0.468389 1.356971 -57.031462 -5.020729 11.225486 7.464133 -24.412536 6.919944 -4.806155 -4.335010 -3.768384 29.401204 5.916668 2.661114 53.019392 9.496389 12.445992 -15.699852 21.948200 -12.768388 3.432861 4.006974 -8.814014 
-0.568337 0.746881 1.003716 -89.901405 -0.382461 85.282563 -4.022340 -0.499280 2.632141 -2.250301 -8.354641 4.992380 2.516326 7.103381 -7.466670 0.000000 -0.000000 0.000000 1.573222 -1.167142 1.409150 0.583001 0.464485 18.721689 2.419158 -5.393888 -14.818423 0.000000 -0.000000 0.000000 1.173634 0.963164 11.999524 1.030073 -0.659587 -0.225206 -0.041684 0.125484 1.498830 0.242663 4.117662 -7.733901 -4.147335 -2.275331 9.502845 -28.393090 0.825046 1.114859 -56.570339 -5.004598 11.066176 7.674336 -24.679983 6.852600 -4.508710 -4.126532 -3.425800 29.744968 5.677349 2.731121 53.333126 8.552364 12.943582 -15.068933 21.291035 -11.595282 4.186273 3.731413 -7.730398 
-0.577297 0.741842 1.001728 -89.778177 -0.494544 85.028553 -4.559722 -0.630277 3.546597 -2.173532 -9.326133 4.853159 2.929872 7.702926 -8.294176 0.000000 -0.000000 0.000000 1.488812 -0.218185 0.054152 0.190339 -0.587455 22.884234 2.990134 -6.138683 -15.379576 0.000000 -0.000000 0.000000 1.134537 0.324929 12.380801 0.985154 -0.370075 -0.617289 -0.152332 0.165914 1.828972 0.175247 4.212679 -7.842225 -4.362676 -2.374583 9.544226 -28.447652 1.078023 0.886881 -56.354461 -5.202130 10.974008 7.960291 -24.948154 6.615605 -4.194054 -4.284064 -3.779946 29.919977 5.495514 2.709962 53.526558 7.654917 13.407046 -14.348140 20.424467 -10.734281 4.090556 3.761323 -7.110984 
-0.585965 0.737700 1.000125 -89.984193 -0.563760 84.560186 -4.903554 -0.634658 4.644156 -2.327016 -9.766344 4.788972 3.563962 8.413991 -8.821596 0.000000 -0.000000 0.000000 1.116596 -0.036766 -2.344774 0.126608 -0.856842 29.054850 4.069655 -6.395691 -14.869957 0.000000 -0.000000 0.000000 1.005100 0.003800 12.643005 1.055429 -0.049396 -0.451161 -0.282383 0.185783 2.016367 0.219464 4.179587 -7.606396 -4.456342 -2.360456 9.659713 -28.490104 0.976284 0.850508 -56.298609 -5.632532 10.745077 7.908503 -24.406170 5.812696 -4.758387 -4.435712 -4.715670 30.275295 5.483034 2.951830 53.613097 7.120655 13.633718 -13.745261 19.172132 -10.552961 4.867345 3.504373 -6.901884 
-0.593682 0.733518 0.998807 -89.732081 -0.723880 83.970083 -5.405564 -0.442163 5.516557 -2.518841 -10.226097 5.271585 4.783575 8.919453 -9.607286 0.000000 -0.000000 0.000000 0.308177 0.665044 -5.801829 0.253097 -2.090051 37.261856 5.655666 -6.548226 -11.674086 0.000000 -0.000000 0.000000 0.649775 -0.862216 13.532465 1.211995 0.252595 -0.684350 -0.420212 0.108121 2.243584 0.378031 4.188339 -7.419527 -4.735998 -1.902325 10.142542 -28.350588 1.103812 0.922898 -56.383586 -6.047475 10.715726 8.710367 -25.056631 5.042027 -4.117015 -4.519541 -4.904367 30.624017 5.337681 3.140171 53.767189 6.895222 13.785086 -13.367194 17.687809 -11.219557 4.520901 3.514292 -6.599227 
-0.601830 0.729776 0.997537 -89.256123 -0.678535 83.095129 -5.537521 -0.470552 7.156914 -2.699924 -11.439340 4.990983 5.315286 9.559028 -10.065747 0.000000 -0.000000 0.000000 -0.401352 1.275278 -9.357274 0.285485 -3.180556 45.172123 6.855743 -6.715101 -7.778361 0.000000 -0.000000 0.000000 0.373921 -1.759995 14.369302 1.494664 0.439372 -0.449077 -0.459370 -0.089154 2.304076 0.395772 4.197468 -6.592388 -4.949242 -1.324319 10.528441 -28.120594 1.019031 1.318358 -56.476042 -6.433267 10.789253 9.048695 -25.628002 4.550787 -4.431497 -4.438720 -5.593999 30.718595 5.273128 3.277739 53.964055 6.777586 13.806477 -13.108533 16.089870 -11.847956 4.751454 3.099307 -6.722798 
-0.610399 0.726301 0.996253 -88.515075 -0.520343 82.308867 -5.407943 -0.244614 8.439869 -3.137982 -12.378623 5.076728 6.340506 9.970997 -10.631753 0.000000 -0.000000 0.000000 -1.246559 1.786395 -12.732441 0.897025 -3.991526 51.476692 6.739548 -7.871715 -6.414715 0.000000 -0.000000 0.000000 -0.037553 -2.858079 14.954980 1.990258 0.467067 -0.145773 -0.451763 -0.349923 2.555894 0.491604 4.379954 -5.663347 -5.400592 -1.002363 11.221295 -28.016058 1.182287 1.517999 -56.257056 -6.702488 10.953090 9.089947 -27.007799 5.173659 -5.320839 -3.848885 -5.869303 31.116380 4.939728 3.276988 53.661902 6.647862 13.832851 -13.112087 15.535079 -12.021900 5.374789 2.729680 -6.266414 
-0.619595 0.723820 0.995399 -87.611460 -0.185100 81.520661 -4.967235 0.123741 9.927070 -3.311899 -13.393317 4.950932 6.068862 9.837368 -10.903981 0.000000 -0.000000 0.000000 -1.832403 1.748432 -15.056967 0.213272 -5.823152 54.649246 6.186736 -8.642231 -7.637036 0.000000 -0.000000 0.000000 -0.026724 -3.775503 15.655912 2.217796 0.304218 -0.110376 -0.432461 -0.824464 2.845949 0.628360 4.990898 -4.447153 -5.788294 -0.656008 12.347394 -27.958470 1.210665 2.012955 -55.824593 -7.103822 10.844140 8.749567 -27.341794 5.545541 -5.635786 -4.830440 -6.059028 31.290242 4.644495 3.247029 53.653394 6.445482 13.731773 -12.957479 15.100253 -12.023691 5.366962 2.967044 -6.176944 
